<svg viewBox="0 0 256 256" xmlns="http://www.w3.org/2000/svg">
    <defs>
        <linearGradient id="grad" x1="0" y1="0" x2="1" y2="1">
            <stop offset="0%" stop-color="#667eea"/>
            <stop offset="100%" stop-color="#764ba2"/>
        </linearGradient>
    </defs>
    <path fill="url(#grad)" d="M40 184V72a0 0 0 0 1 0 0h176a0 0 0 0 1 0 0v112a16 16 0 0 1-16 16H56a16 16 0 0 1-16-16Z" />
    <path fill="url(#grad)" d="M32 168V56a0 0 0 0 1 0 0h176a0 0 0 0 1 0 0v112a16 16 0 0 1-16 16H48a16 16 0 0 1-16-16Z" opacity="0.7"/>
    <path fill="url(#grad)" d="M24 152V40a0 0 0 0 1 0 0h176a0 0 0 0 1 0 0v112a16 16 0 0 1-16 16H40a16 16 0 0 1-16-16Z" opacity="0.4"/>
</svg> 